<svg width="1200" height="900" viewBox="0 0 1200 900" fill="none" xmlns="http://www.w3.org/2000/svg">
  <rect width="1200" height="900" fill="none"/>
  <g filter="url(#shadow)">
    <path d="M357 118C435 105 763 105 843 119C858 206 862 701 827 790C744 814 455 814 373 790C338 701 342 205 357 118Z" fill="url(#pack)"/>
    <path d="M362 119C454 154 741 154 838 119C807 132 397 132 362 119Z" fill="#0872A7" opacity=".65"/>
    <path d="M363 789C456 745 740 744 828 789C751 815 440 815 363 789Z" fill="#074D86" opacity=".35"/>
    <path d="M357 118C435 105 763 105 843 119C858 206 862 701 827 790C744 814 455 814 373 790C338 701 342 205 357 118Z" stroke="#064A7C" stroke-width="5"/>
    <path d="M411 170C440 160 756 160 790 171" stroke="white" stroke-width="8" opacity=".18"/>
    <g opacity=".18" fill="#06537D">
      <path d="M414 211C456 188 493 194 522 229C479 251 443 245 414 211Z"/>
      <path d="M737 230C781 214 813 225 834 263C789 278 756 267 737 230Z"/>
      <path d="M443 351C485 328 522 334 551 369C508 391 472 385 443 351Z"/>
      <path d="M704 371C748 355 780 366 801 404C756 419 723 408 704 371Z"/>
      <path d="M431 500C478 482 517 493 540 535C491 550 455 538 431 500Z"/>
    </g>
    <g filter="url(#softShadow)">
      <path d="M486 252C526 214 586 212 625 250" stroke="white" stroke-width="15" stroke-linecap="round"/>
      <path d="M503 249C510 210 539 201 554 238C563 205 593 202 606 239C618 215 643 219 650 250" stroke="white" stroke-width="15" stroke-linecap="round"/>
      <text x="600" y="338" text-anchor="middle" font-family="Arial Black, Arial, sans-serif" font-size="82" font-weight="900" fill="white" letter-spacing="-2">ARUVI</text>
      <path d="M488 364H712" stroke="white" stroke-width="8" stroke-linecap="round"/>
      <text x="600" y="450" text-anchor="middle" font-family="Arial Black, Arial, sans-serif" font-size="78" font-weight="900" fill="white" letter-spacing="-1">BANANA</text>
      <text x="600" y="535" text-anchor="middle" font-family="Arial Black, Arial, sans-serif" font-size="88" font-weight="900" fill="white" letter-spacing="-1">CHIPS</text>
    </g>
    <g filter="url(#labelShadow)">
      <path d="M572 159C624 128 713 137 759 177C716 211 624 214 572 159Z" fill="#FFEA72"/>
      <text x="608" y="180" font-family="Arial, sans-serif" font-size="25" font-weight="900" fill="#075A82" transform="rotate(-6 608 180)">Hot &amp; Fresh</text>
    </g>
    <text x="600" y="590" text-anchor="middle" font-family="Georgia, serif" font-size="48" font-weight="700" fill="#FFD84A" transform="rotate(-4 600 590)">Lightly Salted</text>
    <path d="M362 660C477 585 721 578 836 658C837 703 833 752 817 788C731 814 461 814 374 790C360 753 356 704 362 660Z" fill="#F9F3E6"/>
    <ellipse cx="600" cy="715" rx="252" ry="104" fill="#FDF5DE"/>
    <ellipse cx="600" cy="715" rx="222" ry="84" fill="#D48A14" opacity=".16"/>
    <g>
      <ellipse cx="485" cy="718" rx="76" ry="37" fill="#F4C430" transform="rotate(-18 485 718)"/>
      <ellipse cx="555" cy="694" rx="74" ry="36" fill="#FFD65C" transform="rotate(8 555 694)"/>
      <ellipse cx="637" cy="721" rx="80" ry="38" fill="#F2BD25" transform="rotate(-10 637 721)"/>
      <ellipse cx="716" cy="694" rx="70" ry="35" fill="#FFD04B" transform="rotate(19 716 694)"/>
      <ellipse cx="460" cy="762" rx="84" ry="37" fill="#E9A81A" transform="rotate(14 460 762)"/>
      <ellipse cx="562" cy="760" rx="82" ry="39" fill="#F5C43A" transform="rotate(-9 562 760)"/>
      <ellipse cx="666" cy="761" rx="83" ry="38" fill="#EAA819" transform="rotate(11 666 761)"/>
      <ellipse cx="757" cy="748" rx="74" ry="35" fill="#F2BE25" transform="rotate(-19 757 748)"/>
    </g>
  </g>
  <defs>
    <linearGradient id="pack" x1="600" y1="103" x2="600" y2="815" gradientUnits="userSpaceOnUse">
      <stop stop-color="#30B9F2"/>
      <stop offset=".45" stop-color="#168FD2"/>
      <stop offset="1" stop-color="#0A63A8"/>
    </linearGradient>
    <filter id="shadow" x="252" y="48" width="696" height="841" filterUnits="userSpaceOnUse" color-interpolation-filters="sRGB">
      <feDropShadow dx="0" dy="36" stdDeviation="45" flood-color="#043B63" flood-opacity=".28"/>
    </filter>
    <filter id="labelShadow" x="560" y="124" width="220" height="96" filterUnits="userSpaceOnUse" color-interpolation-filters="sRGB">
      <feDropShadow dx="0" dy="7" stdDeviation="5" flood-color="#4B3200" flood-opacity=".25"/>
    </filter>
    <filter id="softShadow" x="300" y="186" width="600" height="370" filterUnits="userSpaceOnUse" color-interpolation-filters="sRGB">
      <feDropShadow dx="0" dy="9" stdDeviation="6" flood-color="#043B63" flood-opacity=".16"/>
    </filter>
  </defs>
</svg>

